<svg xmlns="http://www.w3.org/2000/svg" viewBox="0 0 24 24" fill="none" stroke="currentColor" stroke-width="1.5">
  <!-- Card Border -->
  <rect x="2" y="4" width="20" height="16" rx="2" ry="2" stroke="currentColor" fill="none" />

  <!-- Letter G (rond en duidelijk) -->
  <path d="M7.5 9.5c-1.1 0-2 .9-2 2v1c0 1.1.9 2 2 2h1.5v-1.2H7.5a.8.8 0 0 1-.8-.8v-1c0-.44.36-.8.8-.8h1.5v.8h-1v1h2.2v-2.8c0-.66-.54-1.2-1.2-1.2H7.5z" fill="currentColor" stroke="none"/>

  <!-- Letter I -->
  <rect x="11.5" y="9.5" width="1.2" height="5" fill="currentColor" stroke="none" />

  <!-- Letter F -->
  <path d="M15 9.5h3v1h-2v1h1.5v1h-1.5v2h-1v-5z" fill="currentColor" stroke="none"/>
</svg>
